<?xml version="1.0" encoding="UTF-8"?>
<!-- Do not edit this file with editors other than diagrams.net -->
<!DOCTYPE svg PUBLIC "-//W3C//DTD SVG 1.1//EN" "http://www.w3.org/Graphics/SVG/1.1/DTD/svg11.dtd">
<svg xmlns="http://www.w3.org/2000/svg" xmlns:xlink="http://www.w3.org/1999/xlink" version="1.1" width="711px" height="331px" viewBox="-0.5 -0.5 711 331"><defs><clipPath id="mx-clip-0-120-30-30-0"><rect x="0" y="120" width="30" height="30"/></clipPath><clipPath id="mx-clip-36-120-144-30-0"><rect x="36" y="120" width="144" height="30"/></clipPath><clipPath id="mx-clip-36-150-144-30-0"><rect x="36" y="150" width="144" height="30"/></clipPath><clipPath id="mx-clip-36-180-144-30-0"><rect x="36" y="180" width="144" height="30"/></clipPath><clipPath id="mx-clip-36-210-144-30-0"><rect x="36" y="210" width="144" height="30"/></clipPath><clipPath id="mx-clip-36-240-144-30-0"><rect x="36" y="240" width="144" height="30"/></clipPath><clipPath id="mx-clip-36-270-144-30-0"><rect x="36" y="270" width="144" height="30"/></clipPath><clipPath id="mx-clip-36-300-144-30-0"><rect x="36" y="300" width="144" height="30"/></clipPath><clipPath id="mx-clip-250-30-30-30-0"><rect x="250" y="30" width="30" height="30"/></clipPath><clipPath id="mx-clip-286-30-144-30-0"><rect x="286" y="30" width="144" height="30"/></clipPath><clipPath id="mx-clip-286-60-144-30-0"><rect x="286" y="60" width="144" height="30"/></clipPath><clipPath id="mx-clip-286-90-144-30-0"><rect x="286" y="90" width="144" height="30"/></clipPath><clipPath id="mx-clip-250-120-30-30-0"><rect x="250" y="120" width="30" height="30"/></clipPath><clipPath id="mx-clip-286-120-144-30-0"><rect x="286" y="120" width="144" height="30"/></clipPath><clipPath id="mx-clip-250-150-30-30-0"><rect x="250" y="150" width="30" height="30"/></clipPath><clipPath id="mx-clip-286-150-144-30-0"><rect x="286" y="150" width="144" height="30"/></clipPath><clipPath id="mx-clip-530-150-30-30-0"><rect x="530" y="150" width="30" height="30"/></clipPath><clipPath id="mx-clip-566-150-144-30-0"><rect x="566" y="150" width="144" height="30"/></clipPath><clipPath id="mx-clip-566-180-144-30-0"><rect x="566" y="180" width="144" height="30"/></clipPath><clipPath id="mx-clip-566-210-144-30-0"><rect x="566" y="210" width="144" height="30"/></clipPath></defs><g><path d="M 0 120 L 0 90 L 180 90 L 180 120" fill="rgb(255, 255, 255)" stroke="rgb(0, 0, 0)" stroke-miterlimit="10" pointer-events="all"/><path d="M 0 120 L 0 330 L 180 330 L 180 120" fill="none" stroke="rgb(0, 0, 0)" stroke-miterlimit="10" pointer-events="none"/><path d="M 0 120 L 180 120" fill="none" stroke="rgb(0, 0, 0)" stroke-miterlimit="10" pointer-events="none"/><path d="M 30 120 L 30 150 L 30 180 L 30 210 L 30 240 L 30 270 L 30 300 L 30 330" fill="none" stroke="rgb(0, 0, 0)" stroke-miterlimit="10" pointer-events="none"/><g fill="rgb(0, 0, 0)" font-family="Helvetica" font-weight="bold" pointer-events="none" text-anchor="middle" font-size="12px"><text x="89.5" y="109.5">persons</text></g><path d="M 0 120 M 180 120 M 180 150 L 0 150" fill="none" stroke="rgb(0, 0, 0)" stroke-linecap="square" stroke-miterlimit="10" pointer-events="none"/><path d="M 0 120 M 30 120 M 30 150 M 0 150" fill="none" stroke="rgb(0, 0, 0)" stroke-linecap="square" stroke-miterlimit="10" pointer-events="none"/><g fill="rgb(0, 0, 0)" font-family="Helvetica" font-weight="bold" pointer-events="none" clip-path="url(#mx-clip-0-120-30-30-0)" text-anchor="middle" font-size="12px"><text x="14.5" y="139.5">PK</text></g><path d="M 30 120 M 180 120 M 180 150 M 30 150" fill="none" stroke="rgb(0, 0, 0)" stroke-linecap="square" stroke-miterlimit="10" pointer-events="none"/><g fill="rgb(0, 0, 0)" font-family="Helvetica" font-weight="bold" text-decoration="underline" pointer-events="none" clip-path="url(#mx-clip-36-120-144-30-0)" font-size="12px"><text x="37.5" y="139.5">uid: Long</text></g><path d="M 0 150 M 30 150 M 30 180 M 0 180" fill="none" stroke="rgb(0, 0, 0)" stroke-linecap="square" stroke-miterlimit="10" pointer-events="none"/><path d="M 30 150 M 180 150 M 180 180 M 30 180" fill="none" stroke="rgb(0, 0, 0)" stroke-linecap="square" stroke-miterlimit="10" pointer-events="none"/><g fill="rgb(0, 0, 0)" font-family="Helvetica" pointer-events="none" clip-path="url(#mx-clip-36-150-144-30-0)" font-size="12px"><text x="37.5" y="169.5">name: String</text></g><path d="M 0 180 M 30 180 M 30 210 M 0 210" fill="none" stroke="rgb(0, 0, 0)" stroke-linecap="square" stroke-miterlimit="10" pointer-events="none"/><path d="M 30 180 M 180 180 M 180 210 M 30 210" fill="none" stroke="rgb(0, 0, 0)" stroke-linecap="square" stroke-miterlimit="10" pointer-events="none"/><g fill="rgb(0, 0, 0)" font-family="Helvetica" pointer-events="none" clip-path="url(#mx-clip-36-180-144-30-0)" font-size="12px"><text x="37.5" y="199.5">last_name: String</text></g><path d="M 0 210 M 30 210 M 30 240 M 0 240" fill="none" stroke="rgb(0, 0, 0)" stroke-linecap="square" stroke-miterlimit="10" pointer-events="none"/><path d="M 30 210 M 180 210 M 180 240 M 30 240" fill="none" stroke="rgb(0, 0, 0)" stroke-linecap="square" stroke-miterlimit="10" pointer-events="none"/><g fill="rgb(0, 0, 0)" font-family="Helvetica" pointer-events="none" clip-path="url(#mx-clip-36-210-144-30-0)" font-size="12px"><text x="37.5" y="229.5">job_title: String</text></g><path d="M 0 240 M 30 240 M 30 270 M 0 270" fill="none" stroke="rgb(0, 0, 0)" stroke-linecap="square" stroke-miterlimit="10" pointer-events="none"/><path d="M 30 240 M 180 240 M 180 270 M 30 270" fill="none" stroke="rgb(0, 0, 0)" stroke-linecap="square" stroke-miterlimit="10" pointer-events="none"/><g fill="rgb(0, 0, 0)" font-family="Helvetica" pointer-events="none" clip-path="url(#mx-clip-36-240-144-30-0)" font-size="12px"><text x="37.5" y="259.5">number: String</text></g><path d="M 0 270 M 30 270 M 30 300 M 0 300" fill="none" stroke="rgb(0, 0, 0)" stroke-linecap="square" stroke-miterlimit="10" pointer-events="none"/><path d="M 30 270 M 180 270 M 180 300 M 30 300" fill="none" stroke="rgb(0, 0, 0)" stroke-linecap="square" stroke-miterlimit="10" pointer-events="none"/><g fill="rgb(0, 0, 0)" font-family="Helvetica" pointer-events="none" clip-path="url(#mx-clip-36-270-144-30-0)" font-size="12px"><text x="37.5" y="289.5">gender: Char</text></g><path d="M 0 300 M 30 300 M 30 330 M 0 330" fill="none" stroke="rgb(0, 0, 0)" stroke-linecap="square" stroke-miterlimit="10" pointer-events="none"/><path d="M 30 300 M 180 300 M 180 330 M 30 330" fill="none" stroke="rgb(0, 0, 0)" stroke-linecap="square" stroke-miterlimit="10" pointer-events="none"/><g fill="rgb(0, 0, 0)" font-family="Helvetica" pointer-events="none" clip-path="url(#mx-clip-36-300-144-30-0)" font-size="12px"><text x="37.5" y="319.5">(attendances: List&lt;Long&gt;)</text></g><path d="M 250 30 L 250 0 L 430 0 L 430 30" fill="rgb(255, 255, 255)" stroke="rgb(0, 0, 0)" stroke-miterlimit="10" pointer-events="none"/><path d="M 250 30 L 250 180 L 430 180 L 430 30" fill="none" stroke="rgb(0, 0, 0)" stroke-miterlimit="10" pointer-events="none"/><path d="M 250 30 L 430 30" fill="none" stroke="rgb(0, 0, 0)" stroke-miterlimit="10" pointer-events="none"/><path d="M 280 30 L 280 60 L 280 90 L 280 120 L 280 150 L 280 180" fill="none" stroke="rgb(0, 0, 0)" stroke-miterlimit="10" pointer-events="none"/><g fill="rgb(0, 0, 0)" font-family="Helvetica" font-weight="bold" pointer-events="none" text-anchor="middle" font-size="12px"><text x="339.5" y="19.5">attendances</text></g><path d="M 250 30 M 430 30 M 430 60 L 250 60" fill="none" stroke="rgb(0, 0, 0)" stroke-linecap="square" stroke-miterlimit="10" pointer-events="none"/><path d="M 250 30 M 280 30 M 280 60 M 250 60" fill="none" stroke="rgb(0, 0, 0)" stroke-linecap="square" stroke-miterlimit="10" pointer-events="none"/><g fill="rgb(0, 0, 0)" font-family="Helvetica" font-weight="bold" pointer-events="none" clip-path="url(#mx-clip-250-30-30-30-0)" text-anchor="middle" font-size="12px"><text x="264.5" y="49.5">PK</text></g><path d="M 280 30 M 430 30 M 430 60 M 280 60" fill="none" stroke="rgb(0, 0, 0)" stroke-linecap="square" stroke-miterlimit="10" pointer-events="none"/><g fill="rgb(0, 0, 0)" font-family="Helvetica" font-weight="bold" text-decoration="underline" pointer-events="none" clip-path="url(#mx-clip-286-30-144-30-0)" font-size="12px"><text x="287.5" y="49.5">id: Long</text></g><path d="M 250 60 M 280 60 M 280 90 M 250 90" fill="none" stroke="rgb(0, 0, 0)" stroke-linecap="square" stroke-miterlimit="10" pointer-events="none"/><path d="M 280 60 M 430 60 M 430 90 M 280 90" fill="none" stroke="rgb(0, 0, 0)" stroke-linecap="square" stroke-miterlimit="10" pointer-events="none"/><g fill="rgb(0, 0, 0)" font-family="Helvetica" pointer-events="none" clip-path="url(#mx-clip-286-60-144-30-0)" font-size="12px"><text x="287.5" y="79.5">date: DateTime</text></g><path d="M 250 90 M 280 90 M 280 120 M 250 120" fill="none" stroke="rgb(0, 0, 0)" stroke-linecap="square" stroke-miterlimit="10" pointer-events="none"/><path d="M 280 90 M 430 90 M 430 120 M 280 120" fill="none" stroke="rgb(0, 0, 0)" stroke-linecap="square" stroke-miterlimit="10" pointer-events="none"/><g fill="rgb(0, 0, 0)" font-family="Helvetica" pointer-events="none" clip-path="url(#mx-clip-286-90-144-30-0)" font-size="12px"><text x="287.5" y="109.5">status: Boolean</text></g><path d="M 250 120 M 280 120 M 280 150 M 250 150" fill="none" stroke="rgb(0, 0, 0)" stroke-linecap="square" stroke-miterlimit="10" pointer-events="none"/><g fill="rgb(0, 0, 0)" font-family="Helvetica" pointer-events="none" clip-path="url(#mx-clip-250-120-30-30-0)" text-anchor="middle" font-size="12px"><text x="264.5" y="139.5">FK</text></g><path d="M 280 120 M 430 120 M 430 150 M 280 150" fill="none" stroke="rgb(0, 0, 0)" stroke-linecap="square" stroke-miterlimit="10" pointer-events="none"/><g fill="rgb(0, 0, 0)" font-family="Helvetica" pointer-events="none" clip-path="url(#mx-clip-286-120-144-30-0)" font-size="12px"><text x="287.5" y="139.5">person_uid: Long</text></g><path d="M 250 150 M 280 150 M 280 180 M 250 180" fill="none" stroke="rgb(0, 0, 0)" stroke-linecap="square" stroke-miterlimit="10" pointer-events="none"/><g fill="rgb(0, 0, 0)" font-family="Helvetica" pointer-events="none" clip-path="url(#mx-clip-250-150-30-30-0)" text-anchor="middle" font-size="12px"><text x="264.5" y="169.5">FK</text></g><path d="M 280 150 M 430 150 M 430 180 M 280 180" fill="none" stroke="rgb(0, 0, 0)" stroke-linecap="square" stroke-miterlimit="10" pointer-events="none"/><g fill="rgb(0, 0, 0)" font-family="Helvetica" pointer-events="none" clip-path="url(#mx-clip-286-150-144-30-0)" font-size="12px"><text x="287.5" y="169.5">gate_id: Int</text></g><path d="M 180 135 L 210 135 L 220 135 L 250 135" fill="none" stroke="rgb(0, 0, 0)" stroke-miterlimit="10" pointer-events="none"/><path d="M 184 131 L 184 139 M 188 131 L 188 139" fill="none" stroke="rgb(0, 0, 0)" stroke-miterlimit="10" pointer-events="none"/><ellipse cx="238" cy="135" rx="3" ry="3" fill="#ffffff" stroke="rgb(0, 0, 0)" pointer-events="none"/><path d="M 250 131 L 242 135 L 250 139" fill="none" stroke="rgb(0, 0, 0)" stroke-miterlimit="10" pointer-events="none"/><path d="M 530 150 L 530 120 L 710 120 L 710 150" fill="rgb(255, 255, 255)" stroke="rgb(0, 0, 0)" stroke-miterlimit="10" pointer-events="none"/><path d="M 530 150 L 530 240 L 710 240 L 710 150" fill="none" stroke="rgb(0, 0, 0)" stroke-miterlimit="10" pointer-events="none"/><path d="M 530 150 L 710 150" fill="none" stroke="rgb(0, 0, 0)" stroke-miterlimit="10" pointer-events="none"/><path d="M 560 150 L 560 180 L 560 210 L 560 240" fill="none" stroke="rgb(0, 0, 0)" stroke-miterlimit="10" pointer-events="none"/><g fill="rgb(0, 0, 0)" font-family="Helvetica" font-weight="bold" pointer-events="none" text-anchor="middle" font-size="12px"><text x="619.5" y="139.5">gates</text></g><path d="M 530 150 M 710 150 M 710 180 L 530 180" fill="none" stroke="rgb(0, 0, 0)" stroke-linecap="square" stroke-miterlimit="10" pointer-events="none"/><path d="M 530 150 M 560 150 M 560 180 M 530 180" fill="none" stroke="rgb(0, 0, 0)" stroke-linecap="square" stroke-miterlimit="10" pointer-events="none"/><g fill="rgb(0, 0, 0)" font-family="Helvetica" font-weight="bold" pointer-events="none" clip-path="url(#mx-clip-530-150-30-30-0)" text-anchor="middle" font-size="12px"><text x="544.5" y="169.5">PK</text></g><path d="M 560 150 M 710 150 M 710 180 M 560 180" fill="none" stroke="rgb(0, 0, 0)" stroke-linecap="square" stroke-miterlimit="10" pointer-events="none"/><g fill="rgb(0, 0, 0)" font-family="Helvetica" font-weight="bold" text-decoration="underline" pointer-events="none" clip-path="url(#mx-clip-566-150-144-30-0)" font-size="12px"><text x="567.5" y="169.5">id: Int</text></g><path d="M 530 180 M 560 180 M 560 210 M 530 210" fill="none" stroke="rgb(0, 0, 0)" stroke-linecap="square" stroke-miterlimit="10" pointer-events="none"/><path d="M 560 180 M 710 180 M 710 210 M 560 210" fill="none" stroke="rgb(0, 0, 0)" stroke-linecap="square" stroke-miterlimit="10" pointer-events="none"/><g fill="rgb(0, 0, 0)" font-family="Helvetica" pointer-events="none" clip-path="url(#mx-clip-566-180-144-30-0)" font-size="12px"><text x="567.5" y="199.5">name: String</text></g><path d="M 530 210 M 560 210 M 560 240 M 530 240" fill="none" stroke="rgb(0, 0, 0)" stroke-linecap="square" stroke-miterlimit="10" pointer-events="none"/><path d="M 560 210 M 710 210 M 710 240 M 560 240" fill="none" stroke="rgb(0, 0, 0)" stroke-linecap="square" stroke-miterlimit="10" pointer-events="none"/><g fill="rgb(0, 0, 0)" font-family="Helvetica" pointer-events="none" clip-path="url(#mx-clip-566-210-144-30-0)" font-size="12px"><text x="567.5" y="229.5">(attendances: List&lt;Long&gt;)</text></g><path d="M 530 165 L 500 165 L 460 165 L 430 165" fill="none" stroke="rgb(0, 0, 0)" stroke-miterlimit="10" pointer-events="none"/><path d="M 526 169 L 526 161 M 522 169 L 522 161" fill="none" stroke="rgb(0, 0, 0)" stroke-miterlimit="10" pointer-events="none"/><ellipse cx="442" cy="165" rx="3" ry="3" fill="#ffffff" stroke="rgb(0, 0, 0)" pointer-events="none"/><path d="M 430 169 L 438 165 L 430 161" fill="none" stroke="rgb(0, 0, 0)" stroke-miterlimit="10" pointer-events="none"/></g></svg>